<?xml version="1.0" encoding="utf-8"?>
<!DOCTYPE svg PUBLIC "-//W3C//DTD SVG 1.1//EN" "http://www.w3.org/Graphics/SVG/1.1/DTD/svg11.dtd">
<svg version="1.1" xmlns="http://www.w3.org/2000/svg" xmlns:xlink="http://www.w3.org/1999/xlink" x="0px" y="0px" viewBox="0 0 1000 1000" enable-background="new 0 0 1000 1000" xml:space="preserve">
<g><g><path d="M500,990c270.6,0,490-219.4,490-490c0-270.6-219.4-490-490-490C229.4,10,10,229.4,10,500C10,770.6,229.4,990,500,990z M500,101.9c219.9,0,398.1,178.2,398.1,398.1S719.9,898.1,500,898.1S101.9,719.9,101.9,500S280.1,101.9,500,101.9z"/><path d="M650.5,313.6L563.9,227l-273,273l273,273l86.6-86.6L464.1,500L650.5,313.6z"/></g></g>
</svg>